<?xml version="1.0" encoding="UTF-8" standalone="no" ?>
<!DOCTYPE svg PUBLIC "-//W3C//DTD SVG 1.1//EN" "http://www.w3.org/Graphics/SVG/1.1/DTD/svg11.dtd">
<svg xmlns="http://www.w3.org/2000/svg" xmlns:xlink="http://www.w3.org/1999/xlink" version="1.1" width="500" height="500" viewBox="0 0 500 500" xml:space="preserve">
<desc>Created with Fabric.js 3.6.3</desc>
<defs>
</defs>
<g transform="matrix(3.641875 0 0 3.641875 250 225.65625)"  >
<g style=""   >
		<g transform="matrix(1 0 0 1 0.009684472898911167 0.016009622597472628)"  >
<path style="stroke: none; stroke-width: 1; stroke-dasharray: none; stroke-linecap: butt; stroke-dashoffset: 0; stroke-linejoin: miter; stroke-miterlimit: 4; fill: rgb(0,0,0); fill-rule: nonzero; opacity: 1;"  transform=" translate(-50.00968447289891, -50.01600962259747)" d="M 88.6 38.81 c -0.68 -4.41 -3.08 -7.7 -5.74 -11.14 l -4.52 -5.86 a 35.14 35.14 0 0 0 -4.26 -4.94 a 23.87 23.87 0 0 0 -10.65 -5.09 A 69.3 69.3 0 0 0 50.7 9.93 a 27.62 27.62 0 0 0 -3.86 0.12 a 41.09 41.09 0 0 0 -5.4 0.51 c -4.27 0.68 -8.94 1.92 -12.43 4.59 s -6.27 6.42 -9.17 9.7 c -1.58 1.78 -3.16 3.55 -4.73 5.34 a 22.14 22.14 0 0 0 -3.56 5 c -2 4.25 -0.4 8.74 -0.72 13.21 a 29.45 29.45 0 0 0 -0.07 6.83 c 0.37 2.24 1.44 4.28 2.06 6.45 a 38.07 38.07 0 0 0 2 6.14 a 39.75 39.75 0 0 0 3.36 5.51 A 24 24 0 0 0 22 78.06 c 1.67 1.44 3.7 2.3 5.55 3.47 c 3.64 2.32 6.72 5.31 10.79 6.92 A 27 27 0 0 0 51 89.92 a 57.78 57.78 0 0 0 13.51 -3.38 a 61.83 61.83 0 0 0 6.07 -2.34 a 8.24 8.24 0 0 0 3.9 -4 a 6.28 6.28 0 0 1 3.22 -3 a 12.22 12.22 0 0 0 3.7 -2.38 a 5 5 0 0 0 1.09 -2 c 0.25 -0.89 0 -1.88 0.27 -2.74 s 1.15 -1 1.73 -1.43 a 4.92 4.92 0 0 0 1.77 -2.35 a 46.47 46.47 0 0 0 3.16 -13.53 A 65.92 65.92 0 0 0 88.6 38.81 Z M 85.21 59.43 a 46 46 0 0 1 -1.82 6 c -0.62 1.45 -2.59 1.74 -3.31 3.26 c -0.64 1.35 0 3.14 -1 4.26 a 12.55 12.55 0 0 1 -3.31 1.93 a 8.41 8.41 0 0 0 -3.23 2.68 c -0.51 0.76 -0.79 1.63 -1.3 2.38 a 4.83 4.83 0 0 1 -2 1.62 a 49.24 49.24 0 0 1 -5.53 2.12 c -2 0.72 -4 1.39 -6.07 2 A 35.28 35.28 0 0 1 45.29 87 a 21.69 21.69 0 0 1 -11 -4.26 c -1.57 -1.14 -3.08 -2.36 -4.69 -3.43 s -3.53 -1.87 -5.11 -3.07 a 18.22 18.22 0 0 1 -3.73 -4.42 a 45.79 45.79 0 0 1 -3.08 -4.94 a 28 28 0 0 1 -1.89 -5.58 c -0.55 -2 -1.51 -3.92 -2 -5.95 a 20.64 20.64 0 0 1 -0.05 -6.47 a 33.16 33.16 0 0 0 -0.17 -6.3 a 10.88 10.88 0 0 1 0.61 -6.06 A 20.65 20.65 0 0 1 17.51 32 q 4.36 -5 8.76 -9.9 a 39.21 39.21 0 0 1 4.06 -4.19 a 16.24 16.24 0 0 1 5.31 -2.81 a 38.07 38.07 0 0 1 7.87 -1.81 h 0 a 7.4 7.4 0 0 1 2 -0.05 c 0.58 -0.1 1.16 -0.18 1.75 -0.24 H 48 a 39.24 39.24 0 0 1 4.2 0.2 l 1.38 0 a 5 5 0 0 1 1.36 0.19 l 0.07 0 c 0.84 0.11 1.67 0.24 2.5 0.36 A 39 39 0 0 1 68 16.42 c 3.73 1.75 6.1 4.69 8.56 7.88 S 82 30.84 84 34.48 s 2 7.87 2.27 11.84 A 40.17 40.17 0 0 1 85.21 59.43 Z" stroke-linecap="round" />
</g>
		<g transform="matrix(1 0 0 1 -0.5419457248823392 -0.9064807035584437)"  >
<path style="stroke: none; stroke-width: 1; stroke-dasharray: none; stroke-linecap: butt; stroke-dashoffset: 0; stroke-linejoin: miter; stroke-miterlimit: 4; fill: rgb(0,0,0); fill-rule: nonzero; opacity: 1;"  transform=" translate(-49.45805427511766, -49.093519296441556)" d="M 81.9 38.7 c -1.28 -3.68 -3.81 -6.63 -6.44 -9.43 a 75.8 75.8 0 0 0 -8.21 -7.92 a 25.35 25.35 0 0 0 -10.11 -4.94 a 56.34 56.34 0 0 0 -12.31 -0.92 a 0.29 0.29 0 0 0 -0.19 0.06 c -2.66 -0.18 -5.37 0 -7.63 1.52 a 38.74 38.74 0 0 0 -3.83 3.3 q -2.37 2.14 -4.75 4.28 l -4.38 4 a 32.06 32.06 0 0 0 -3.77 3.69 a 24.06 24.06 0 0 0 -4 9.06 a 20 20 0 0 0 -0.08 5.35 c 0 2 -0.4 4 -0.48 6 c -0.15 3.53 1.32 6.57 2.9 9.64 A 39.55 39.55 0 0 0 24 71 c 2.3 2.56 5.31 4.33 7.84 6.62 S 36.61 82 40 82.52 c 3.52 0.59 7.07 -0.21 10.57 -0.49 s 7.27 0.52 10.76 -0.46 c 3.15 -0.89 5.72 -3.07 8 -5.3 a 66.62 66.62 0 0 0 6.85 -7.69 a 41.63 41.63 0 0 0 5.6 -9 c 1.4 -3.43 1.38 -7.24 1.4 -10.89 A 29.81 29.81 0 0 0 81.9 38.7 Z M 72.49 71.9 a 44.15 44.15 0 0 1 -7.1 6.77 c -3 2.17 -6.12 2.71 -9.76 2.59 a 73.48 73.48 0 0 0 -10 0.54 c -3.52 0.35 -7 0.25 -10 -1.88 c -2.47 -1.76 -4.6 -4 -7 -5.85 a 26.72 26.72 0 0 1 -6.81 -7.25 a 51.16 51.16 0 0 1 -4.62 -9 a 12.57 12.57 0 0 1 -0.82 -5 c 0.08 -1.87 0.47 -3.71 0.48 -5.58 c 0 -2.08 -0.39 -4 0.17 -6.06 a 34.81 34.81 0 0 1 2.08 -5.54 c 1.67 -3.52 4.78 -5.86 7.61 -8.42 c 3 -2.73 6 -5.48 9.08 -8.19 a 9.61 9.61 0 0 1 4.9 -2.58 A 16.93 16.93 0 0 1 45 16.31 h 1.93 a 0.09 0.09 0 0 0 0 -0.05 c 6.26 0.09 12.44 0.65 17.84 4.22 A 44.47 44.47 0 0 1 72 26.73 a 66.9 66.9 0 0 1 6.69 7.49 c 4 5.65 4 12.73 3.59 19.39 C 81.79 60.68 77 66.76 72.49 71.9 Z" stroke-linecap="round" />
</g>
		<g transform="matrix(1 0 0 1 0.04314811780079708 -1.1166666666666671)"  >
<path style="stroke: none; stroke-width: 1; stroke-dasharray: none; stroke-linecap: butt; stroke-dashoffset: 0; stroke-linejoin: miter; stroke-miterlimit: 4; fill: rgb(0,0,0); fill-rule: nonzero; opacity: 1;"  transform=" translate(-50.0431481178008, -48.88333333333333)" d="M 81.05 49.48 a 74.19 74.19 0 0 0 -2.41 -10.7 a 11.55 11.55 0 0 0 -1.77 -4 c -1.05 -1.35 -2.58 -1.9 -4 -2.79 c -2.93 -1.85 -4.5 -5.12 -7 -7.4 s -6.34 -3.78 -9.75 -4.74 A 36.71 36.71 0 0 0 48 18.52 a 1.22 1.22 0 0 1 -0.57 0 c 0.29 0 0 0 -0.07 0 h -0.26 l -0.47 0 c -0.34 0 -0.67 0.07 -1 0.11 a 7.65 7.65 0 0 1 -1.35 0.08 a 15.49 15.49 0 0 0 -9.33 4.72 C 33.8 24.65 33 26.07 31.8 27.16 c -2.25 2.06 -5.1 3.22 -7.19 5.5 a 20.82 20.82 0 0 0 -4.18 7.16 A 30.27 30.27 0 0 0 18.93 50 c 0 3.22 0.07 7 1.37 10 c 1.22 2.86 3.82 5 6 7.14 c 2.65 2.65 5.26 5.34 7.94 8 a 12.91 12.91 0 0 0 7.65 3.92 c 3.13 0.42 6.29 0 9.44 0 c 3.31 -0.08 6.75 0.31 9.91 -0.91 c 2.77 -1.07 5 -3.07 7.19 -5 a 26.09 26.09 0 0 0 3.37 -3.44 a 26.49 26.49 0 0 0 2.51 -4.39 c 1.36 -2.74 3.3 -5 4.91 -7.63 A 12 12 0 0 0 81.05 49.48 Z m -1 4.47 c -0.78 2.69 -2.65 4.89 -4.22 7.14 s -2.64 5.12 -4.26 7.51 A 30.18 30.18 0 0 1 65.07 75 a 14.55 14.55 0 0 1 -8.78 3.31 c -3 0.11 -6.09 0.08 -9.13 0.21 s -6.15 0.15 -8.91 -1.18 s -5 -4.2 -7.26 -6.42 c -2.39 -2.4 -4.82 -4.76 -7.17 -7.21 a 14.12 14.12 0 0 1 -2.66 -3.53 A 15.77 15.77 0 0 1 20 54.72 A 40.25 40.25 0 0 1 20 44.55 a 23.07 23.07 0 0 1 3.28 -9 a 17.26 17.26 0 0 1 3.2 -3.72 A 42.2 42.2 0 0 1 30.68 29 c 2.49 -1.72 3.85 -4.38 6.16 -6.26 a 15 15 0 0 1 8.69 -3.31 l 0.77 -0.09 l 0.1 -0.08 H 47 s 0.07 0 0.11 0 a 33.11 33.11 0 0 1 16.29 4.41 c 2.52 1.54 4.12 3.9 6 6.1 a 15.38 15.38 0 0 0 2.53 2.44 c 1.26 0.93 2.85 1.41 4 2.54 c 2.12 2.13 2.58 6 3.24 8.8 C 79.87 46.84 81.06 50.59 80.09 54 Z" stroke-linecap="round" />
</g>
		<g transform="matrix(1 0 0 1 -0.590214231874505 -0.8218515191082503)"  >
<path style="stroke: none; stroke-width: 1; stroke-dasharray: none; stroke-linecap: butt; stroke-dashoffset: 0; stroke-linejoin: miter; stroke-miterlimit: 4; fill: rgb(0,0,0); fill-rule: nonzero; opacity: 1;"  transform=" translate(-49.409785768125495, -49.17814848089175)" d="M 73.71 36.8 c -1.39 -1.06 -2.87 -2 -4.2 -3.13 a 30.48 30.48 0 0 1 -3.69 -3.76 c -1.94 -2.34 -3.69 -4.8 -6.51 -6.14 a 26.27 26.27 0 0 0 -9 -2 a 16.38 16.38 0 0 0 -3.57 0 a 19 19 0 0 0 -3.07 1.35 l -1.51 0.62 a 49 49 0 0 0 -9.77 6.56 a 66.72 66.72 0 0 0 -6.19 6.05 c -1.83 2 -3.27 4.14 -3.44 6.94 c -0.09 1.58 0.11 3.15 0 4.73 s -0.58 3.09 -0.34 4.67 a 14.24 14.24 0 0 0 1.27 3.63 c 0.64 1.44 1.28 2.87 2 4.27 a 28.49 28.49 0 0 0 4.85 7.09 a 41.26 41.26 0 0 0 6.79 5.41 a 20.23 20.23 0 0 0 7.94 3.42 a 31.58 31.58 0 0 0 9.25 -0.39 c 3.13 -0.44 6 -1.86 8.93 -3 a 12.82 12.82 0 0 0 5.6 -4.94 a 68.1 68.1 0 0 0 5.05 -8.41 c 1.29 -2.54 2.43 -5 2 -7.93 A 24.66 24.66 0 0 1 75.49 47 c 0.09 -1.53 0.7 -3 0.91 -4.47 C 76.76 40.07 75.64 38.28 73.71 36.8 Z m 1 11.13 a 31.91 31.91 0 0 0 0.59 3.63 a 9.19 9.19 0 0 1 -0.56 5 a 51.26 51.26 0 0 1 -4.17 7.89 c -1.41 2.28 -2.9 4.83 -5 6.55 a 13.32 13.32 0 0 1 -4 2 c -1.35 0.5 -2.63 1.16 -4 1.66 a 28.77 28.77 0 0 1 -9 1.34 a 16.73 16.73 0 0 1 -8.61 -2.07 C 35.35 71.32 30.77 67.66 27.91 63 a 59.8 59.8 0 0 1 -3.54 -7.07 a 10.73 10.73 0 0 1 -1.25 -4.23 c 0 -1.46 0.42 -2.9 0.45 -4.36 a 31.64 31.64 0 0 1 0.07 -5.06 A 9.5 9.5 0 0 1 25.78 38 a 56.5 56.5 0 0 1 6.07 -6.21 A 45.77 45.77 0 0 1 47 22.49 h 0 a 17.87 17.87 0 0 1 3.73 0.05 a 27 27 0 0 1 7.55 1.59 c 2.69 1.1 4.47 3.16 6.25 5.37 A 34 34 0 0 0 70 35.05 c 1.89 1.48 4.81 2.75 5.56 5.23 S 74.61 45.38 74.75 47.93 Z" stroke-linecap="round" />
</g>
		<g transform="matrix(1 0 0 1 -0.15485742554518822 -0.8242315854724751)"  >
<path style="stroke: none; stroke-width: 1; stroke-dasharray: none; stroke-linecap: butt; stroke-dashoffset: 0; stroke-linejoin: miter; stroke-miterlimit: 4; fill: rgb(0,0,0); fill-rule: nonzero; opacity: 1;"  transform=" translate(-49.84514257445481, -49.175768414527525)" d="M 70 40.27 a 9.07 9.07 0 0 0 -1.9 -2.72 c -1 -1 -2.38 -1.67 -3.48 -2.64 c -2 -1.79 -3.28 -4.3 -5.44 -6 a 12.33 12.33 0 0 0 -12.55 -1.43 a 0.51 0.51 0 0 0 -0.15 0.14 A 70.24 70.24 0 0 0 33 34.22 A 10 10 0 0 0 29 38.8 a 15.28 15.28 0 0 0 -0.88 6.93 c 0.19 2.76 0.7 5.48 0.85 8.25 a 19.58 19.58 0 0 0 1.26 6.73 a 17.83 17.83 0 0 0 9 9 a 26.77 26.77 0 0 0 14.44 2 a 17.8 17.8 0 0 0 6.41 -2.63 a 37 37 0 0 0 5.66 -3.78 a 16.37 16.37 0 0 0 5.73 -11.62 C 71.83 49.4 71.81 44.22 70 40.27 Z M 66.89 63.15 A 23.81 23.81 0 0 1 62.08 67 a 44.35 44.35 0 0 1 -5.67 3.17 a 16.51 16.51 0 0 1 -7.08 1 a 27 27 0 0 1 -7 -1.06 a 18.31 18.31 0 0 1 -10.29 -7.43 c -2.61 -4.07 -2.23 -8.76 -2.84 -13.37 C 28.54 44.1 28.16 38.39 33 35.12 A 66.17 66.17 0 0 1 47.54 28 a 0.37 0.37 0 0 0 0.18 -0.14 a 11.52 11.52 0 0 1 11.17 1.82 a 39.74 39.74 0 0 1 4 4.59 c 1.47 1.67 3.54 2.57 5 4.2 c 2.77 3.08 2.88 7.84 2.93 11.75 C 70.88 54.89 70.16 59.6 66.89 63.15 Z" stroke-linecap="round" />
</g>
		<g transform="matrix(1 0 0 1 -0.15715289974158964 -1.2877846910460349)"  >
<path style="stroke: none; stroke-width: 1; stroke-dasharray: none; stroke-linecap: butt; stroke-dashoffset: 0; stroke-linejoin: miter; stroke-miterlimit: 4; fill: rgb(0,0,0); fill-rule: nonzero; opacity: 1;"  transform=" translate(-49.84284710025841, -48.712215308953965)" d="M 68.18 43.2 a 15.39 15.39 0 0 0 -3.57 -4.94 c -1.84 -1.85 -3.76 -3.62 -5.65 -5.42 c -1.63 -1.55 -3.27 -3.13 -5.46 -3.82 A 8.81 8.81 0 0 0 50 28.66 c -0.7 0.25 -1.44 0.36 -2.14 0.63 l -0.75 0.31 a 0.52 0.52 0 0 0 0 0.11 a 100.42 100.42 0 0 0 -10.45 5 a 6.78 6.78 0 0 0 -3.33 3.41 c -0.78 2 -1.75 4 -2.36 6 a 11.66 11.66 0 0 0 0.13 6.09 A 61.12 61.12 0 0 0 33 56.89 c 1.12 3.19 2.62 6.51 5.37 8.62 a 12.21 12.21 0 0 0 5.42 2.15 c 2.3 0.41 4.63 0.81 6.95 1.1 a 6.82 6.82 0 0 0 4.87 -1.3 c 2 -1.23 3.94 -2.44 5.89 -3.69 c 3.14 -2 5.85 -4.33 6.7 -8.11 A 39.34 39.34 0 0 0 69 49.45 A 14.43 14.43 0 0 0 68.18 43.2 Z m -0.27 9.41 a 14.63 14.63 0 0 1 -1.49 5.67 a 12.87 12.87 0 0 1 -3.82 3.85 c -1.47 1 -3 2 -4.54 2.91 s -3.39 2.53 -5.24 3 a 8.93 8.93 0 0 1 -3.45 -0.2 l -3.12 -0.5 A 22.35 22.35 0 0 1 40.64 66 c -3.22 -1.41 -5.08 -4.59 -6.34 -7.73 a 50.23 50.23 0 0 1 -1.72 -5.2 a 25.53 25.53 0 0 1 -1.25 -6.16 c -0.07 -2.29 1.05 -4.23 1.9 -6.28 a 23.17 23.17 0 0 1 1.13 -2.94 a 6.38 6.38 0 0 1 2.5 -2.19 a 100.57 100.57 0 0 1 12.37 -5.86 a 0.42 0.42 0 0 0 0.16 -0.13 a 8.37 8.37 0 0 1 3.72 0.18 a 12.38 12.38 0 0 1 5 3.35 c 2.78 2.63 6 5.18 8.25 8.33 C 68.68 44.73 68.37 48.72 67.91 52.61 Z" stroke-linecap="round" />
</g>
		<g transform="matrix(1 0 0 1 -0.2841979700355246 -1.2447555241191068)"  >
<path style="stroke: none; stroke-width: 1; stroke-dasharray: none; stroke-linecap: butt; stroke-dashoffset: 0; stroke-linejoin: miter; stroke-miterlimit: 4; fill: rgb(0,0,0); fill-rule: nonzero; opacity: 1;"  transform=" translate(-49.71580202996448, -48.75524447588089)" d="M 64.14 43.6 A 11.74 11.74 0 0 0 60.9 39 a 38 38 0 0 0 -4.5 -3.8 a 11.64 11.64 0 0 0 -5.1 -2 l 0 0 l -0.21 0 l 0 0 l -0.16 0 l -0.21 0 a 13.41 13.41 0 0 0 -5.74 0.92 c -4.73 1.09 -9.23 3.24 -10.79 8.2 c -1.12 3.58 0.4 7.77 1.44 11.21 c 0.92 3.08 1.9 6.71 4.52 8.82 s 6.09 2.13 9.22 1.87 A 26 26 0 0 0 58.81 62 a 12.66 12.66 0 0 0 6.1 -7.25 C 66.31 51 65.48 47.26 64.14 43.6 Z m 0.72 8.55 a 12.82 12.82 0 0 1 -5.13 8.43 a 19.23 19.23 0 0 1 -8.5 2.63 c -2.87 0.35 -6 0.68 -8.8 -0.41 c -3.19 -1.28 -4.49 -4.45 -5.5 -7.49 c -1.07 -3.2 -2.33 -6.79 -2.44 -10.19 c -0.11 -3.61 2.24 -6.64 5.24 -8.41 a 17.62 17.62 0 0 1 5 -1.9 l 0 0 h 0 l 0.2 -0.07 a 0.88 0.88 0 0 1 0.32 0 l 0.36 -0.13 c 1.67 -0.33 3.36 -0.53 5 -0.71 a 10.14 10.14 0 0 1 4.49 1.4 a 23.45 23.45 0 0 1 3.84 3 a 20.42 20.42 0 0 1 3.4 3.49 a 16.16 16.16 0 0 1 1.87 4.82 A 12.91 12.91 0 0 1 64.86 52.15 Z" stroke-linecap="round" />
</g>
		<g transform="matrix(1 0 0 1 0.004270256373391845 -0.9649999999999963)"  >
<path style="stroke: none; stroke-width: 1; stroke-dasharray: none; stroke-linecap: butt; stroke-dashoffset: 0; stroke-linejoin: miter; stroke-miterlimit: 4; fill: rgb(0,0,0); fill-rule: nonzero; opacity: 1;"  transform=" translate(-50.00427025637339, -49.035000000000004)" d="M 62 49.55 a 14.78 14.78 0 0 0 -0.46 -4.64 c -0.92 -2.73 -3.74 -5.09 -6.14 -6.52 a 11.61 11.61 0 0 0 -4.14 -1.54 h 0 l -1 -0.15 l -0.23 0 l -0.39 0.07 a 8.73 8.73 0 0 0 -3 0.56 a 0.43 0.43 0 0 0 -0.17 0.13 a 29 29 0 0 0 -4.71 1.67 a 4.5 4.5 0 0 0 -2.4 2.16 a 16.68 16.68 0 0 0 -1 4.25 c -0.48 2.93 -0.68 6 0.5 8.83 a 11.65 11.65 0 0 0 10.66 7 c 2.73 -0.05 5.43 -1.19 7.88 -2.3 s 4.07 -2.66 4.45 -5.34 A 26.94 26.94 0 0 0 62 49.55 Z m -0.77 2.16 a 8.38 8.38 0 0 1 -0.8 4 a 6.4 6.4 0 0 1 -2.77 2.35 c -4.19 2.14 -9 3.59 -13.38 1.16 A 10.93 10.93 0 0 1 40 54.94 a 12.7 12.7 0 0 1 -1.13 -7.54 a 42.66 42.66 0 0 1 0.75 -4.5 a 4.14 4.14 0 0 1 2.66 -3.24 a 31.72 31.72 0 0 1 7.41 -2.18 c 4.15 0 8.31 2.93 10.5 6.32 C 61.58 46 61.29 49.17 61.21 51.71 Z" stroke-linecap="round" />
</g>
		<g transform="matrix(1 0 0 1 -0.5246489762159641 -1.0157949086347635)"  >
<path style="stroke: none; stroke-width: 1; stroke-dasharray: none; stroke-linecap: butt; stroke-dashoffset: 0; stroke-linejoin: miter; stroke-miterlimit: 4; fill: rgb(0,0,0); fill-rule: nonzero; opacity: 1;"  transform=" translate(-49.475351023784036, -48.98420509136524)" d="M 57.11 48 c -0.11 -0.35 -0.26 -0.68 -0.37 -1 h 0 a 8.46 8.46 0 0 0 -1.63 -2.64 a 7.6 7.6 0 0 0 -4.49 -1.84 c -3 -0.41 -6.49 0.42 -8.18 3.19 a 6.53 6.53 0 0 0 1.28 8 A 7.6 7.6 0 0 0 47.5 55.5 A 14.48 14.48 0 0 0 52.61 55 a 8.87 8.87 0 0 0 2.56 -0.55 a 3.57 3.57 0 0 0 1.49 -1.82 a 8 8 0 0 0 0.66 -3.85 C 57.25 48.52 57.19 48.23 57.11 48 Z m -0.88 3.73 a 4.2 4.2 0 0 1 -1.12 1.92 a 3.74 3.74 0 0 1 -1.91 0.56 a 29.06 29.06 0 0 1 -4.55 0.69 a 7 7 0 0 1 -3.59 -1.09 a 5.9 5.9 0 0 1 -2.43 -6.87 c 1 -2.74 4.07 -3.91 6.78 -3.81 a 8.1 8.1 0 0 1 4.91 1.52 a 9.38 9.38 0 0 1 2.19 3.81 s 0 0 0 0 A 7.2 7.2 0 0 1 56.23 51.69 Z" stroke-linecap="round" />
</g>
		<g transform="matrix(1 0 0 1 -1.0498746469937608 -0.9739904561591466)"  >
<path style="stroke: none; stroke-width: 1; stroke-dasharray: none; stroke-linecap: butt; stroke-dashoffset: 0; stroke-linejoin: miter; stroke-miterlimit: 4; fill: rgb(0,0,0); fill-rule: nonzero; opacity: 1;"  transform=" translate(-48.95012535300624, -49.02600954384086)" d="M 51.46 46.85 a 2.67 2.67 0 0 0 -1.82 -0.29 a 3.85 3.85 0 0 0 -3.58 0.7 a 2.45 2.45 0 0 0 0.26 3.49 a 4.14 4.14 0 0 0 3.94 0.69 a 2.92 2.92 0 0 0 2.19 -2.86 A 2.2 2.2 0 0 0 51.46 46.85 Z m -1.23 3.81 a 3.59 3.59 0 0 1 -3.07 -0.21 A 1.81 1.81 0 0 1 46.44 48 A 2.58 2.58 0 0 1 49 47.22 l 0 0 a 3.78 3.78 0 0 1 1.34 0.1 l 0.07 0 a 1.36 1.36 0 0 1 1.23 1.16 A 2.07 2.07 0 0 1 50.23 50.66 Z" stroke-linecap="round" />
</g>
</g>
</g>
<g transform="matrix(0.41345061941924555 0 0 0.08386277001270649 255.39954405118263 227.04193138500636)"  >
<rect style="stroke: none; stroke-width: 1; stroke-dasharray: none; stroke-linecap: butt; stroke-dashoffset: 0; stroke-linejoin: miter; stroke-miterlimit: 4; fill: rgb(255,255,255); fill-rule: evenodd; opacity: 1;"  x="-393.5" y="-393.5" rx="0" ry="0" width="787" height="787" />
</g>
<g transform="matrix(1 0 0 1 250.24999999999997 230.1115)" style=""  ><path fill="#000000" opacity="1" d="M-129.71-20.41L-129.71-4.65L-140.19-4.65L-140.19-20.41L-145.53-20.41L-145.53 16.62L-140.19 16.62L-140.19 0.38L-129.71 0.38L-129.71 16.62L-124.37 16.62L-124.37-20.41Z"/><path fill="#000000" opacity="1" d="M-93.90 17.31C-86.81 17.31-82.58 12.60-82.58 4.87L-82.58-8.67C-82.58-16.39-86.81-21.10-93.90-21.10C-100.99-21.10-105.22-16.39-105.22-8.67L-105.22 4.87C-105.22 12.60-100.99 17.31-93.90 17.31ZM-93.90 12.07C-97.76 12.07-99.72 9.53-99.72 4.87L-99.72-8.67C-99.72-13.32-97.76-15.86-93.90-15.86C-90.09-15.86-88.08-13.32-88.08-8.67L-88.08 4.87C-88.08 9.53-90.09 12.07-93.90 12.07Z"/><path fill="#000000" opacity="1" d="M-63.43-20.41L-63.43 16.62L-58.08 16.62L-58.08-20.41Z"/><path fill="#000000" opacity="1" d="M-34.23 11.54L-20.95-16.76L-20.95-20.41L-39.94-20.41L-39.94-15.33L-27.51-15.33L-40.73 12.92L-40.73 16.62L-20.68 16.62L-20.68 11.54Z"/><path fill="#000000" opacity="1" d="M27.24-20.41L23.43-0.15C22.96 2.55 22.06 7.36 21.74 9.69L21.53 9.69C21.21 7.36 20.42 2.81 19.84-0.42L16.13-19.83L10.47-19.83L6.77-0.42C6.19 2.81 5.40 7.36 5.08 9.69L4.87 9.69C4.55 7.36 3.65 2.55 3.17-0.15L-0.63-20.41L-6.19-20.41L2.12 16.62L7.83 16.62L11.43 0.27C12.22-3.22 12.96-8.62 13.23-11.63L13.44-11.63C13.65-8.62 14.39-3.22 15.18 0.27L18.78 16.62L24.49 16.62L32.80-20.41Z"/><path fill="#000000" opacity="1" d="M55.02 11.59L55.02 0.27L66.81 0.27L66.81-4.65L55.02-4.65L55.02-15.39L67.82-15.39L67.82-20.41L49.67-20.41L49.67 16.62L68.35 16.62L68.35 11.59Z"/><path fill="#000000" opacity="1" d="M103.00 16.62L108.92 16.62L100.88 2.44C105.11 0.91 107.55-3.06 107.55-8.83C107.55-16.18 103.53-20.41 96.44-20.41L86.86-20.41L86.86 16.62L92.20 16.62L92.20 3.18L95.54 3.18ZM92.20-15.33L96.38-15.33C100.09-15.33 102.04-13.11 102.04-8.72C102.04-4.33 100.09-1.90 96.33-1.90L92.20-1.90Z"/><path fill="#000000" opacity="1" d="M143.09 16.62L149.23 16.62L137.12-4.28L147.70-20.41L141.45-20.41L134.05-8.67L131.62-4.33L131.62-20.41L126.33-20.41L126.33 16.62L131.62 16.62L131.62 4.08L134.05 0.43Z"/></g></svg>
